<?xml version="1.0" encoding="UTF-8"?><svg id="a" xmlns="http://www.w3.org/2000/svg" width="250" height="250" xmlns:xlink="http://www.w3.org/1999/xlink" viewBox="0 0 250 250"><defs></defs><path fill="currentColor" d="m48.56,122.26c0-10.27,1.95-19.99,5.85-29.17,3.9-9.17,9.31-17.32,16.23-24.44,6.91-7.12,14.96-12.66,24.14-16.64,9.17-3.97,19.03-5.96,29.58-5.96s20.4,1.99,29.58,5.96c9.17,3.98,17.29,9.52,24.34,16.64,7.05,7.12,12.56,15.27,16.54,24.44,3.97,9.18,5.96,18.9,5.96,29.17s-1.99,20.4-5.96,29.58c-3.98,9.18-9.52,17.26-16.64,24.24-7.12,6.98-15.24,12.43-24.34,16.33-9.11,3.91-18.94,5.86-29.48,5.86s-20.41-1.92-29.58-5.75c-9.18-3.83-17.23-9.21-24.14-16.13-6.91-6.91-12.32-14.96-16.23-24.14-3.91-9.17-5.85-19.17-5.85-29.99Zm22.59,0c0,7.67,1.37,14.82,4.11,21.46,2.74,6.64,6.57,12.46,11.5,17.46,4.93,5,10.65,8.9,17.16,11.71,6.5,2.81,13.52,4.21,21.05,4.21s14.31-1.4,20.75-4.21c6.43-2.81,12.08-6.71,16.94-11.71,4.86-5,8.66-10.82,11.4-17.46,2.74-6.64,4.11-13.79,4.11-21.46s-1.4-14.82-4.21-21.47c-2.81-6.64-6.61-12.49-11.4-17.56-4.8-5.07-10.48-9.04-17.05-11.91-6.57-2.88-13.63-4.32-21.16-4.32s-14.55,1.44-21.06,4.32c-6.51,2.88-12.19,6.85-17.05,11.91-4.86,5.07-8.6,10.96-11.2,17.67-2.6,6.71-3.9,13.84-3.9,21.36Z"></path><image width="2626" height="2545" transform="translate(15.19 40.6) scale(.08)"></image><path fill="currentColor" d="m153.84,192.41c-9.11,3.91-18.94,5.86-29.48,5.86s-20.41-1.92-29.58-5.75l-8.01-31.32c4.93,5,10.65,8.9,17.16,11.71,6.5,2.81,13.52,4.21,21.05,4.21s14.31-1.4,20.75-4.21c6.43-2.81,12.08-6.71,16.94-11.71l-8.83,31.22Zm-78.57-48.68"></path></svg>